<svg xmlns="http://www.w3.org/2000/svg">
  <symbol id="login-ico" viewBox="0 0 16 16">
    <path d="M7.31 9.06l-.08.07-1.43 1.46a1.24 1.24 0 0 0-.23.32 1.17 1.17 0 0 0 .19 1.33 1.15 1.15 0 0 0 .95.37 1.18 1.18 0 0 0 .79-.37l1.85-1.86 1.72-1.72a1.15 1.15 0 0 0 .19-.27 1.11 1.11 0 0 0 .12-.6 1 1 0 0 0-.21-.58c-.14-.17-.29-.32-.44-.48L7.34 3.34a1.1 1.1 0 0 0-1-.28 1.12 1.12 0 0 0-.7.41 1.14 1.14 0 0 0-.27.67 1.19 1.19 0 0 0 .39 1l1.5 1.5.08.08H2.1a1.21 1.21 0 0 0-.72.42 1.15 1.15 0 0 0-.24 1 1.12 1.12 0 0 0 .39.62 1.14 1.14 0 0 0 .78.29h5zM12.51 8v3.93a.59.59 0 0 1-.26.5.67.67 0 0 1-.41.11h-1.27a1.18 1.18 0 0 0-.66.42 1.17 1.17 0 0 0 .21 1.67 1.1 1.1 0 0 0 .69.24h1a6 6 0 0 0 .64 0 2.32 2.32 0 0 0 .73-.24 3 3 0 0 0 .62-.42 3.14 3.14 0 0 0 .71-.86 2.88 2.88 0 0 0 .35-1.42v-8.2a2.51 2.51 0 0 0-.26-.9 3.05 3.05 0 0 0-.88-1.07 2.88 2.88 0 0 0-1.78-.62h-1.32a1.15 1.15 0 0 0-.65.37 1.12 1.12 0 0 0-.31.73 1.1 1.1 0 0 0 .18.67 1.13 1.13 0 0 0 1 .56h1.18a.62.62 0 0 1 .55.56v3.94z"/><path d="M7.31 9.06h-5a1.14 1.14 0 0 1-.78-.29 1.12 1.12 0 0 1-.39-.62 1.15 1.15 0 0 1 .24-1 1.21 1.21 0 0 1 .72-.45h5.24l-.08-.08-1.5-1.5a1.19 1.19 0 0 1-.39-1 1.14 1.14 0 0 1 .27-.67 1.12 1.12 0 0 1 .7-.41 1.1 1.1 0 0 1 1 .28l3.39 3.38c.15.15.3.31.44.48a1 1 0 0 1 .21.58 1.11 1.11 0 0 1-.12.6 1.15 1.15 0 0 1-.19.27l-1.72 1.75-1.84 1.86a1.18 1.18 0 0 1-.79.37 1.15 1.15 0 0 1-.95-.37 1.17 1.17 0 0 1-.19-1.33 1.24 1.24 0 0 1 .23-.32l1.43-1.44.08-.07z"/><path d="M12.51 8V4.06a.62.62 0 0 0-.51-.57h-1.18a1.13 1.13 0 0 1-1-.56 1.1 1.1 0 0 1-.18-.67 1.12 1.12 0 0 1 .36-.75 1.15 1.15 0 0 1 .65-.37h1.32a2.88 2.88 0 0 1 1.78.62 3.05 3.05 0 0 1 .85 1.04 2.51 2.51 0 0 1 .26.9v8.2a2.88 2.88 0 0 1-.35 1.42 3.14 3.14 0 0 1-.71.86 3 3 0 0 1-.62.42 2.32 2.32 0 0 1-.73.24 5.94 5.94 0 0 1-.64 0h-1a1.1 1.1 0 0 1-.69-.24 1.17 1.17 0 0 1-.21-1.6 1.18 1.18 0 0 1 .66-.42h1.27a.67.67 0 0 0 .41-.11.59.59 0 0 0 .26-.5V8.04z"/>
  </symbol>

  <symbol id="beard-1" viewBox="0 0 51.5 49.5">
    <path fill="#826550"  d="M76.6,24.8H76.4c-2.3,7.7-2.9,17.1-9.4,20.6-1.2-3.4-4.1-4.9-7.4-6.4s-4.5-2.6-6.6-2.6a2.2,2.2,0,0,0-1.5.3,2.2,2.2,0,0,0-1.5-.3c-2.1.1-4.5,1.7-6.6,2.6s-6.2,3-7.4,6.4c-6.4-3.6-7.1-12.9-9.4-20.6H26.4a14.5,14.5,0,0,0-.6,2.4c0,1.9.5,21.5,1.9,28.4s6.1,10.8,10.8,13.8,8.5,4.8,13,4.8,9.7-2.8,13-4.8,9.6-7.5,10.8-13.8,1.9-26.5,1.9-28.4A14.5,14.5,0,0,0,76.6,24.8ZM62.7,52.8c-0.2,1.6-1.7,3.4-3.4,3.5s-4.5-4.4-7.9-4.4-4.9,4.5-7.9,4.4-3.1-1.9-3.4-3.5a7.6,7.6,0,0,1,1.7-5.6c1.1-1.1,2.8-.9,4.7-1.2a8.6,8.6,0,0,0,4.9-1.9h0A8.6,8.6,0,0,0,56.3,46c1.9,0.3,3.6.1,4.7,1.2A7.6,7.6,0,0,1,62.7,52.8Z" transform="translate(-25.8 -24.8)"/>
  </symbol>

  <symbol id="beard-2" viewBox="0 0 57.7 68.6">
    <path fill="#826550" d="M80.4,56.5c0.1-1.7.5-3.5,0.7-5.4,0.7-5.4,1.6-11.7-.1-16.8H80.8c-1.3,3.7-1.3,8.3-2.2,12.4a19.7,19.7,0,0,1-3.2,7.6A4.4,4.4,0,0,1,73.5,56c-0.7-3.9-4.3-4.9-7.7-6.4s-4-2-6.1-2.2a10.8,10.8,0,0,0-2,.2,10.6,10.6,0,0,0-2-.2c-2.1.1-4,1.3-6.1,2.2s-7,2.4-7.7,6.4A4.4,4.4,0,0,1,40,54.2a19.7,19.7,0,0,1-3.2-7.6c-0.9-4-.8-8.6-2.2-12.4H34.3c-1.7,5.1-.8,11.4-0.1,16.8,0.2,1.9.6,3.7,0.7,5.4,0.8,11.1-7,23.1-6,28.9,0.9,7.5,8.4,9.4,14.2,12.4s8.3,5,13.3,5.2H59c5-.2,9-2.9,13.3-5.2S85.5,93,86.4,85.4C87.4,79.6,79.6,67.6,80.4,56.5ZM57.7,60.3h0a35.9,35.9,0,0,1-7.2-.5c0.7-2.1,4-1.6,7.1-1.6h0.2c3,0,6.4-.5,7.1,1.6A36,36,0,0,1,57.7,60.3Z" transform="translate(-28.8 -34.3)"/>
  </symbol>

  <symbol id="beard-3" viewBox="0 0 62.4 78.5">
    <path fill="#826550" d="M93.6,81.2c0-5.2-2.4-7.8-3.6-10a56,56,0,0,1-4.2-17.6c-0.1-4.9-1.7-12.4-2.9-14.4-0.9,0-1.5,7.8-2.3,11.6-1.4,7-3.8,8.9-4.4,9-0.8-2.8-4.1-7.4-13.7-7.7H62.3c-9.6.4-12.9,4.9-13.7,7.7-0.7-.1-3-2-4.4-9-0.8-3.9-1.4-11.6-2.3-11.6-1.2,2-2.8,9.5-2.9,14.4a56.1,56.1,0,0,1-4.2,17.6c-1.2,2.2-3.6,4.7-3.6,10s5.2,7.2,5.6,11.4c0.1,1.2,0,2.3.1,3.4,2,17.5,17.9,21.7,25.4,21.7h0c7.6,0,23.4-4.2,25.4-21.7,0.2-1,0-2.1.1-3.4C88.4,88.4,93.6,85,93.6,81.2ZM64.4,66a20.6,20.6,0,0,0-4.1,0c-1.7.3-5.8,1-5.8-1.1s6.7-2.3,7.8-2.3,7.8,1.2,7.8,2.3S66.2,66.3,64.4,66Z" transform="translate(-31.2 -39.2)"/>
  </symbol>

  <symbol id="beard-4" viewBox="0 0 57 97.7">
    <path fill="#826550" d="M79.6,64.1c-0.4-5.5-.6-10.9-2.5-15.2-0.8,0-1.5,7.3-2.3,10.9-1.5,7.1-3.7,8.3-4.4,8.3-0.9-3.9-4.4-4.2-7.8-5.9A11.1,11.1,0,0,0,59,61a14.6,14.6,0,0,0-2,.1,14.4,14.4,0,0,0-2-.1,11.1,11.1,0,0,0-3.6,1.2c-3.4,1.6-6.9,2-7.8,5.9-0.7,0-3-1.1-4.4-8.3-0.7-3.6-1.5-10.9-2.3-10.9-1.9,4.4-2.1,9.8-2.5,15.2-0.9,23.5-5.9,36.3-5.9,47.2,0,26.1,11.7,35.3,28.5,35.3s28.5-9.2,28.5-35.3C85.5,100.4,80.5,87.6,79.6,64.1ZM62.9,73.8c-2.8,1.2-5.4-.7-5.9-0.7H56.9c-0.5,0-3.1,1.9-5.9.7-0.8-3.6,2.4-4,5.9-3.9S63.7,70.2,62.9,73.8Z" transform="translate(-28.5 -48.8)"/>
  </symbol>

  <symbol id="beard-5" viewBox="0 0 44.7 104.8">
    <path fill="#826550" d="M66.3,52.4H66.2c-2.8,21.5-5.4,22.6-7,22.7s-3.6-1.8-4.9-2.5A15.9,15.9,0,0,0,45.2,70a15.9,15.9,0,0,0-9.1,2.5c-1.3.7-3.5,2.6-4.9,2.5s-4.1-1.2-7-22.7H24.2c-2.1,12.2-1.6,50.2,1.2,63.6,2.6,18.5,10.1,35.1,13.4,39.6,0.7,1,3.5,1.6,6.4,1.6s5.7-.5,6.4-1.6c3.3-4.5,10.8-21.1,13.4-39.6C67.9,102.6,68.4,64.6,66.3,52.4ZM45.2,80.5a100.2,100.2,0,0,0-10.1.5c1.1-1.8,9-3.2,10.1-3.4s9,1.7,10.1,3.4A100.2,100.2,0,0,0,45.2,80.5Z" transform="translate(-22.9 -52.4)"/>
  </symbol>

  <symbol id="icon-vk" viewBox="0 0 26.14 14.91">
    <path d="M26 13.47l-.09-.17a13.55 13.55 0 0 0-2.6-3q-.87-.83-1.1-1.12A1 1 0 0 1 22 8a10.27 10.27 0 0 1 1.22-1.78l.88-1.16q2.35-3.13 2-4L26 .94a.8.8 0 0 0-.4-.22 2.14 2.14 0 0 0-.87 0h-3.92a.51.51 0 0 0-.27 0h-.3a.6.6 0 0 0-.15.14.93.93 0 0 0-.14.24 22.22 22.22 0 0 1-1.46 3.06q-.5.84-.93 1.46a7 7 0 0 1-.71.91 4.94 4.94 0 0 1-.52.47q-.23.18-.35.15l-.23-.05a.9.9 0 0 1-.31-.33 1.49 1.49 0 0 1-.16-.53V1.6a3.14 3.14 0 0 0 0-.62 2.12 2.12 0 0 0-.14-.44.73.73 0 0 0-.28-.33 1.57 1.57 0 0 0-.46-.18A9 9 0 0 0 12.57 0a8.93 8.93 0 0 0-3.25.33 1.83 1.83 0 0 0-.52.41q-.25.3-.07.33a1.67 1.67 0 0 1 1.16.59l.08.16a2.6 2.6 0 0 1 .19.63 6.32 6.32 0 0 1 .12 1 10.59 10.59 0 0 1 0 1.7q-.07.71-.13 1.1a2.21 2.21 0 0 1-.18.64 2.69 2.69 0 0 1-.16.3l-.07.07a1 1 0 0 1-.37.07.86.86 0 0 1-.46-.19 3.27 3.27 0 0 1-.56-.52 7 7 0 0 1-.66-.93q-.37-.6-.76-1.42l-.22-.39q-.2-.38-.56-1.11t-.62-1.43A.9.9 0 0 0 5.2.9h-.07a.93.93 0 0 0-.22-.16A1.44 1.44 0 0 0 4.6.65L.87.68A1 1 0 0 0 .1.94L0 1a.44.44 0 0 0 0 .22 1.08 1.08 0 0 0 .08.37Q.9 3.53 1.86 5.31t1.66 2.87Q4.23 9.27 5 10.24t1 1.24l.37.41.34.33a8.06 8.06 0 0 0 1 .78 16.34 16.34 0 0 0 1.4.9 7.6 7.6 0 0 0 1.79.72 6.19 6.19 0 0 0 2 .22h1.57a1.08 1.08 0 0 0 .72-.3l.05-.07a.9.9 0 0 0 .1-.25 1.38 1.38 0 0 0 0-.37 4.48 4.48 0 0 1 .09-1.05 2.77 2.77 0 0 1 .23-.71 1.74 1.74 0 0 1 .29-.4 1.19 1.19 0 0 1 .23-.2h.11a.86.86 0 0 1 .77.21 4.52 4.52 0 0 1 .83.79q.39.47.93 1.05a6.41 6.41 0 0 0 1 .87l.27.16a3.31 3.31 0 0 0 .71.3 1.53 1.53 0 0 0 .76.07l3.48-.05a1.58 1.58 0 0 0 .8-.17.68.68 0 0 0 .34-.37 1.06 1.06 0 0 0 0-.46 1.71 1.71 0 0 0-.1-.36z"/>
  </symbol>

  <symbol id="icon-fb" width="19" height="22" viewBox="0 0 10.15 21.74">
    <path d="M3.34 1.12A4.77 4.77 0 0 1 6.53 0h3.61v3.81H7.81a1.07 1.07 0 0 0-1.09.83v2.55h3.42c-.08 1.23-.24 2.45-.41 3.67h-3v10.87H2.21V10.86H0V7.21h2.19V3.66a3.83 3.83 0 0 1 1.15-2.54z"/>
  </symbol>

  <symbol id="icon-insta" viewBox="0 0 512 512">
    <path d="M480 0H32C14.3 0 0 14.3 0 32v448c0 17.7 14.3 32 32 32h448c17.7 0 32-14.3 32-32V32c0-17.7-14.3-32-32-32zM192 256s5.1-64 64-64 64 64 64 64 1.8 64-64 64-64-64-64-64zm256 192H64V224h68.5c-2.7 10.3-4.5 20.9-4.5 32 0 70.7 57.3 128 128 128s128-57.3 128-128c0-11.1-1.9-21.7-4.5-32H448v224zm0-288h-96V64h96v96z"/>

  </symbol>
</svg>

